# xmcd CD database file
#
# Track frame offsets:
#	150
#	18507
#	31735
#	49769
#	65746
#	90133
#	116712
#	146548
#	165583
#	181633
#	199135
#	217729
#
# Disc length: 3076 seconds
#
# Revision: 0
# Processed by: cddbd v1.5.2PL0 Copyright (c) Steve Scherf et al.
# Submitted via: CDex 1.51
#
DISCID=960c020c
DTITLE=Andrea on the wing - unknown
DYEAR=2005
DGENRE=Blues
TTITLE0=Perpetual Blues machine (Moore)
TTITLE1=Love me like a man (Smither)
TTITLE2=He got you (Wooldridge)
TTITLE3=Cherry tree (Taylor, Bonnville)
TTITLE4=Woman be wise (Wallace)
TTITLE5=Blue flowers (Sauerbrey)
TTITLE6=Don't let the sun (Chadwick)
TTITLE7=That's not love (Moore, Craper)
TTITLE8=The secret of a long life (Shocked)
TTITLE9=God's gift to woman (Block)
TTITLE10=Fundamental things (Klein u.a.)
TTITLE11=Blue moon light (Sauerbrey)
EXTD=YEAR: 2005
EXTT0=
EXTT1=
EXTT2=
EXTT3=
EXTT4=
EXTT5=
EXTT6=
EXTT7=
EXTT8=
EXTT9=
EXTT10=
EXTT11=
PLAYORDER=
